<svg xmlns="http://www.w3.org/2000/svg" xmlns:xlink="http://www.w3.org/1999/xlink" width="500" zoomAndPan="magnify" viewBox="0 0 375 374.999991" height="500" preserveAspectRatio="xMidYMid meet" version="1.2"><defs><clipPath id="b9928c12c3"><path d="M 2.578125 0 L 372.328125 0 L 372.328125 375 L 2.578125 375 Z M 2.578125 0 "/></clipPath></defs><g id="83b896e84a"><path style=" stroke:none;fill-rule:nonzero;fill:#fbbc04;fill-opacity:1;" d="M 344.019531 138.632812 L 344.019531 126.425781 L 331.976562 126.425781 L 331.976562 102.015625 L 319.933594 102.015625 L 319.933594 77.605469 L 307.886719 77.605469 L 307.886719 65.402344 L 295.84375 65.402344 L 295.84375 53.195312 L 271.757812 53.195312 L 271.757812 40.992188 L 247.671875 40.992188 L 247.671875 28.785156 L 223.582031 28.785156 L 223.582031 16.582031 L 139.277344 16.582031 L 139.277344 28.785156 L 127.234375 28.785156 L 127.234375 40.992188 L 103.148438 40.992188 L 103.148438 53.195312 L 79.0625 53.195312 L 79.0625 65.402344 L 67.019531 65.402344 L 67.019531 77.605469 L 54.972656 77.605469 L 54.972656 102.015625 L 42.929688 102.015625 L 42.929688 126.425781 L 30.886719 126.425781 L 30.886719 138.632812 L 18.84375 138.632812 L 18.84375 248.476562 L 30.886719 248.476562 L 30.886719 260.683594 L 42.929688 260.683594 L 42.929688 285.09375 L 54.972656 285.09375 L 54.972656 297.300781 L 67.019531 297.300781 L 67.019531 309.503906 L 79.0625 309.503906 L 79.0625 321.710938 L 103.148438 321.710938 L 103.148438 333.914062 L 127.234375 333.914062 L 127.234375 346.121094 L 139.277344 346.121094 L 139.277344 358.324219 L 235.628906 358.324219 L 235.628906 346.121094 L 247.671875 346.121094 L 247.671875 333.914062 L 271.757812 333.914062 L 271.757812 321.710938 L 295.84375 321.710938 L 295.84375 309.503906 L 307.886719 309.503906 L 307.886719 297.300781 L 319.933594 297.300781 L 319.933594 272.886719 L 331.976562 272.886719 L 331.976562 248.476562 L 356.0625 248.476562 L 356.0625 138.632812 Z M 344.019531 138.632812 "/><path style=" stroke:none;fill-rule:nonzero;fill:#f0c82f;fill-opacity:1;" d="M 337.660156 140.613281 L 337.660156 128.90625 L 326.105469 128.90625 L 326.105469 105.484375 L 314.550781 105.484375 L 314.550781 82.066406 L 302.996094 82.066406 L 302.996094 117.195312 L 314.550781 117.195312 L 314.550781 140.613281 L 326.105469 140.613281 L 326.105469 234.289062 L 314.550781 234.289062 L 314.550781 246 L 302.996094 246 L 302.996094 257.710938 L 291.441406 257.710938 L 291.441406 281.128906 L 279.886719 281.128906 L 279.886719 292.839844 L 268.335938 292.839844 L 268.335938 304.546875 L 256.78125 304.546875 L 256.78125 316.257812 L 222.117188 316.257812 L 222.117188 327.964844 L 141.234375 327.964844 L 141.234375 316.257812 L 106.570312 316.257812 L 106.570312 327.964844 L 129.679688 327.964844 L 129.679688 339.675781 L 141.234375 339.675781 L 141.234375 351.386719 L 233.671875 351.386719 L 233.671875 339.675781 L 245.226562 339.675781 L 245.226562 327.964844 L 268.335938 327.964844 L 268.335938 316.257812 L 291.441406 316.257812 L 291.441406 304.546875 L 302.996094 304.546875 L 302.996094 292.839844 L 314.550781 292.839844 L 314.550781 269.417969 L 326.105469 269.417969 L 326.105469 246 L 349.214844 246 L 349.214844 140.613281 Z M 337.660156 140.613281 "/><path style=" stroke:none;fill-rule:nonzero;fill:#f0c82f;fill-opacity:1;" d="M 291.441406 70.355469 L 302.996094 70.355469 L 302.996094 82.066406 L 291.441406 82.066406 Z M 291.441406 70.355469 "/><g clip-rule="nonzero" clip-path="url(#b9928c12c3)"><path style=" stroke:none;fill-rule:nonzero;fill:#d75623;fill-opacity:1;" d="M 360.769531 128.90625 L 360.769531 117.195312 L 349.214844 117.195312 L 349.214844 93.777344 L 337.660156 93.777344 L 337.660156 82.066406 L 326.105469 82.066406 L 326.105469 58.648438 L 314.550781 58.648438 L 314.550781 46.9375 L 302.996094 46.9375 L 302.996094 35.230469 L 279.886719 35.230469 L 279.886719 23.519531 L 256.78125 23.519531 L 256.78125 11.808594 L 222.117188 11.808594 L 222.117188 0.101562 L 141.234375 0.101562 L 141.234375 11.808594 L 118.125 11.808594 L 118.125 23.519531 L 95.019531 23.519531 L 95.019531 35.230469 L 71.910156 35.230469 L 71.910156 46.9375 L 60.355469 46.9375 L 60.355469 58.648438 L 48.800781 58.648438 L 48.800781 70.355469 L 37.246094 70.355469 L 37.246094 82.066406 L 25.691406 82.066406 L 25.691406 93.777344 L 14.136719 93.777344 L 14.136719 128.90625 L 2.582031 128.90625 L 2.582031 246 L 14.136719 246 L 14.136719 269.417969 L 25.691406 269.417969 L 25.691406 292.839844 L 37.246094 292.839844 L 37.246094 304.546875 L 48.800781 304.546875 L 48.800781 316.257812 L 60.355469 316.257812 L 60.355469 327.964844 L 71.910156 327.964844 L 71.910156 339.675781 L 95.019531 339.675781 L 95.019531 351.386719 L 118.125 351.386719 L 118.125 363.09375 L 141.234375 363.09375 L 141.234375 374.804688 L 222.117188 374.804688 L 222.117188 363.09375 L 245.226562 363.09375 L 245.226562 351.386719 L 279.886719 351.386719 L 279.886719 339.675781 L 302.996094 339.675781 L 302.996094 327.964844 L 314.550781 327.964844 L 314.550781 316.257812 L 326.105469 316.257812 L 326.105469 304.546875 L 337.660156 304.546875 L 337.660156 292.839844 L 349.214844 292.839844 L 349.214844 269.417969 L 360.769531 269.417969 L 360.769531 245.855469 L 372.324219 245.855469 L 372.324219 128.90625 Z M 349.214844 152.324219 L 349.214844 246 L 326.105469 246 L 326.105469 269.417969 L 314.550781 269.417969 L 314.550781 292.839844 L 302.996094 292.839844 L 302.996094 304.546875 L 291.441406 304.546875 L 291.441406 316.257812 L 268.335938 316.257812 L 268.335938 327.964844 L 245.226562 327.964844 L 245.226562 339.675781 L 233.671875 339.675781 L 233.671875 351.386719 L 141.234375 351.386719 L 141.234375 339.675781 L 129.679688 339.675781 L 129.679688 327.964844 L 106.570312 327.964844 L 106.570312 316.257812 L 83.464844 316.257812 L 83.464844 304.546875 L 71.910156 304.546875 L 71.910156 292.839844 L 60.355469 292.839844 L 60.355469 281.128906 L 48.800781 281.128906 L 48.800781 257.710938 L 37.246094 257.710938 L 37.246094 246 L 25.691406 246 L 25.691406 140.613281 L 37.246094 140.613281 L 37.246094 128.90625 L 48.800781 128.90625 L 48.800781 105.484375 L 60.355469 105.484375 L 60.355469 82.066406 L 71.910156 82.066406 L 71.910156 70.355469 L 83.464844 70.355469 L 83.464844 58.648438 L 106.570312 58.648438 L 106.570312 46.9375 L 129.679688 46.9375 L 129.679688 35.230469 L 141.234375 35.230469 L 141.234375 23.519531 L 222.117188 23.519531 L 222.117188 35.230469 L 245.226562 35.230469 L 245.226562 46.9375 L 268.335938 46.9375 L 268.335938 58.648438 L 291.441406 58.648438 L 291.441406 70.355469 L 302.996094 70.355469 L 302.996094 82.066406 L 314.550781 82.066406 L 314.550781 105.484375 L 326.105469 105.484375 L 326.105469 128.90625 L 337.660156 128.90625 L 337.660156 140.613281 L 349.214844 140.613281 Z M 349.214844 152.324219 "/></g><path style=" stroke:none;fill-rule:nonzero;fill:#e8d3a7;fill-opacity:1;" d="M 95.019531 140.613281 L 106.570312 140.613281 L 106.570312 164.035156 L 95.019531 164.035156 L 95.019531 187.453125 L 83.464844 187.453125 L 83.464844 199.160156 L 60.355469 199.160156 L 60.355469 187.453125 L 48.800781 187.453125 L 48.800781 140.613281 L 60.355469 140.613281 L 60.355469 128.90625 L 83.464844 128.90625 L 83.464844 140.613281 Z M 106.570312 70.355469 L 95.019531 70.355469 L 95.019531 82.066406 L 83.464844 82.066406 L 83.464844 105.484375 L 95.019531 105.484375 L 95.019531 117.195312 L 106.570312 117.195312 L 106.570312 128.90625 L 118.125 128.90625 L 118.125 70.355469 Z M 106.570312 70.355469 "/><path style=" stroke:none;fill-rule:nonzero;fill:#ffffff;fill-opacity:1;" d="M 256.78125 222.582031 L 256.78125 234.289062 L 245.226562 234.289062 L 245.226562 246 L 233.671875 246 L 233.671875 269.417969 L 222.117188 269.417969 L 222.117188 281.128906 L 210.5625 281.128906 L 210.5625 292.839844 L 199.007812 292.839844 L 199.007812 304.546875 L 175.898438 304.546875 L 175.898438 292.839844 L 164.34375 292.839844 L 164.34375 281.128906 L 152.789062 281.128906 L 152.789062 269.417969 L 141.234375 269.417969 L 141.234375 246 L 129.679688 246 L 129.679688 234.289062 L 118.125 234.289062 L 118.125 222.582031 L 152.789062 222.582031 L 152.789062 105.484375 L 222.117188 105.484375 L 222.117188 222.582031 Z M 175.898438 93.777344 L 222.117188 93.777344 L 222.117188 70.355469 L 152.789062 70.355469 L 152.789062 93.777344 Z M 175.898438 93.777344 "/></g></svg>