<svg xmlns="http://www.w3.org/2000/svg" xmlns:xlink="http://www.w3.org/1999/xlink" width="500" zoomAndPan="magnify" viewBox="0 0 375 374.999991" height="500" preserveAspectRatio="xMidYMid meet" version="1.0"><path fill="#d75623" d="M 144.214844 0 L 144.214844 28.839844 L 230.742188 28.839844 L 230.742188 0 Z M 230.742188 28.839844 L 230.742188 57.683594 L 288.425781 57.683594 L 288.425781 28.839844 Z M 288.425781 57.683594 L 288.425781 86.527344 L 317.269531 86.527344 L 317.269531 57.683594 Z M 317.269531 86.527344 L 317.269531 144.210938 L 346.113281 144.210938 L 346.113281 86.527344 Z M 346.113281 144.210938 L 346.113281 230.738281 L 374.953125 230.738281 L 374.953125 144.210938 Z M 346.113281 230.738281 L 317.269531 230.738281 L 317.269531 288.425781 L 346.113281 288.425781 Z M 317.269531 288.425781 L 288.425781 288.425781 L 288.425781 317.265625 L 317.269531 317.265625 Z M 288.425781 317.265625 L 230.742188 317.265625 L 230.742188 346.109375 L 288.425781 346.109375 Z M 230.742188 346.109375 L 144.214844 346.109375 L 144.214844 374.953125 L 230.742188 374.953125 Z M 144.214844 346.109375 L 144.214844 317.265625 L 86.527344 317.265625 L 86.527344 346.109375 Z M 86.527344 317.265625 L 86.527344 288.425781 L 57.683594 288.425781 L 57.683594 317.265625 Z M 57.683594 288.425781 L 57.683594 230.738281 L 28.84375 230.738281 L 28.84375 288.425781 Z M 28.84375 230.738281 L 28.84375 144.210938 L 0 144.210938 L 0 230.738281 Z M 28.84375 144.210938 L 57.683594 144.210938 L 57.683594 86.527344 L 28.84375 86.527344 Z M 57.683594 86.527344 L 86.527344 86.527344 L 86.527344 57.683594 L 57.683594 57.683594 Z M 86.527344 57.683594 L 144.214844 57.683594 L 144.214844 28.839844 L 86.527344 28.839844 Z M 86.527344 57.683594 " fill-opacity="1" fill-rule="nonzero"/><path fill="#ffc23b" d="M 144.214844 28.839844 L 144.214844 57.683594 L 86.527344 57.683594 L 86.527344 86.527344 L 57.683594 86.527344 L 57.683594 144.210938 L 28.84375 144.210938 L 28.84375 230.738281 L 57.683594 230.738281 L 57.683594 288.425781 L 86.527344 288.425781 L 86.527344 317.265625 L 144.214844 317.265625 L 144.214844 346.109375 L 230.742188 346.109375 L 230.742188 317.265625 L 288.425781 317.265625 L 288.425781 288.425781 L 317.269531 288.425781 L 317.269531 230.738281 L 346.113281 230.738281 L 346.113281 144.210938 L 317.269531 144.210938 L 317.269531 86.527344 L 288.425781 86.527344 L 288.425781 57.683594 L 230.742188 57.683594 L 230.742188 28.839844 Z M 144.214844 28.839844 " fill-opacity="1" fill-rule="nonzero"/><path fill="#f9f9f9" d="M 160.058594 86.527344 L 160.058594 115.367188 L 131.21875 115.367188 L 131.21875 259.582031 L 160.058594 259.582031 L 160.058594 288.425781 L 188.902344 288.425781 L 188.902344 259.582031 L 217.746094 259.582031 L 217.746094 230.738281 L 246.585938 230.738281 L 246.585938 201.898438 L 275.429688 201.898438 L 275.429688 173.054688 L 246.585938 173.054688 L 246.585938 144.210938 L 217.746094 144.210938 L 217.746094 115.367188 L 188.902344 115.367188 L 188.902344 86.527344 Z M 160.058594 86.527344 " fill-opacity="1" fill-rule="nonzero"/></svg>